<svg width="336" height="356" viewBox="0 0 336 356" fill="none" xmlns="http://www.w3.org/2000/svg">
<g clip-path="url(#clip0)">
<path d="M167.404 0L1.52588e-05 58.9125L26.4525 278.241L167.581 355.809L309.438 277.19L335.881 57.87L167.404 0Z" fill="white"/>
<path d="M319.185 70.545L167.013 18.6537V337.276L294.54 266.699L319.185 70.545Z" fill="#AF2B2D"/>
<path d="M18.785 71.4825L41.4525 267.635L167.011 337.276V18.6475L18.785 71.4825Z" fill="#DF2E31"/>
<path d="M161.418 246H132.121V185.062H74.9922V246H45.6953V103.812H74.9922V161.43H132.121V103.812H161.418V246ZM187.102 246V103.812H236.906C254.159 103.812 267.245 107.133 276.164 113.773C285.083 120.349 289.543 130.017 289.543 142.777C289.543 149.743 287.753 155.896 284.172 161.234C280.591 166.508 275.611 170.382 269.23 172.855C276.522 174.678 282.251 178.357 286.418 183.891C290.65 189.424 292.766 196.195 292.766 204.203C292.766 217.875 288.404 228.227 279.68 235.258C270.956 242.289 258.521 245.87 242.375 246H187.102ZM216.398 184.086V222.465H241.496C248.397 222.465 253.768 220.837 257.609 217.582C261.516 214.262 263.469 209.704 263.469 203.91C263.469 190.889 256.73 184.281 243.254 184.086H216.398ZM216.398 163.383H238.078C252.857 163.122 260.246 157.23 260.246 145.707C260.246 139.262 258.358 134.639 254.582 131.84C250.871 128.975 244.979 127.543 236.906 127.543H216.398V163.383Z" fill="#F8F8F8"/>
</g>
<defs>
<clipPath id="clip0">
<rect width="335.881" height="355.809" fill="white"/>
</clipPath>
</defs>
</svg>
