<svg width="336" height="356" viewBox="0 0 336 356" fill="none" xmlns="http://www.w3.org/2000/svg">
<g clip-path="url(#clip0)">
<path d="M167.404 0L1.52588e-05 58.9125L26.4525 278.241L167.581 355.809L309.438 277.19L335.881 57.87L167.404 0Z" fill="white"/>
<path d="M319.185 70.545L167.013 18.6537V337.276L294.54 266.699L319.185 70.545Z" fill="#AF2B2D"/>
<path d="M18.785 71.4825L41.4525 267.635L167.011 337.276V18.6475L18.785 71.4825Z" fill="#DF2E31"/>
<path d="M117.02 103.812H146.316V202.25C146.316 211.299 144.298 219.307 140.262 226.273C136.29 233.174 130.659 238.513 123.367 242.289C116.076 246.065 107.84 247.953 98.6602 247.953C83.6211 247.953 71.9023 244.145 63.5039 236.527C55.1055 228.845 50.9062 218.005 50.9062 204.008H80.3984C80.3984 210.974 81.8633 216.117 84.793 219.438C87.7227 222.758 92.3451 224.418 98.6602 224.418C104.259 224.418 108.719 222.497 112.039 218.656C115.359 214.815 117.02 209.346 117.02 202.25V103.812ZM287.039 246H257.742L200.711 152.445V246H171.414V103.812H200.711L257.84 197.562V103.812H287.039V246Z" fill="#F8F8F8"/>
</g>
<defs>
<clipPath id="clip0">
<rect width="335.881" height="355.809" fill="white"/>
</clipPath>
</defs>
</svg>
