<svg width="336" height="356" viewBox="0 0 336 356" fill="none" xmlns="http://www.w3.org/2000/svg">
<g clip-path="url(#clip0)">
<path d="M167.404 0L1.52588e-05 58.9125L26.4525 278.241L167.581 355.809L309.438 277.19L335.881 57.87L167.404 0Z" fill="#B3B3B3"/>
<path d="M319.185 70.545L167.013 18.6537V337.276L294.54 266.699L319.185 70.545Z" fill="#AF2B2D"/>
<path d="M18.785 71.4825L41.4525 267.635L167.011 337.276V18.6475L18.785 71.4825Z" fill="#DF2E31"/>
<path d="M253.016 207.797C251.422 229.828 243.266 247.172 228.547 259.828C213.922 272.484 194.609 278.812 170.609 278.812C144.359 278.812 123.688 270 108.594 252.375C93.5938 234.656 86.0938 210.375 86.0938 179.531V167.016C86.0938 147.328 89.5625 129.984 96.5 114.984C103.438 99.9844 113.328 88.5 126.172 80.5312C139.109 72.4688 154.109 68.4375 171.172 68.4375C194.797 68.4375 213.828 74.7656 228.266 87.4219C242.703 100.078 251.047 117.844 253.297 140.719H211.109C210.078 127.5 206.375 117.938 200 112.031C193.719 106.031 184.109 103.031 171.172 103.031C157.109 103.031 146.562 108.094 139.531 118.219C132.594 128.25 129.031 143.859 128.844 165.047V180.516C128.844 202.641 132.172 218.812 138.828 229.031C145.578 239.25 156.172 244.359 170.609 244.359C183.641 244.359 193.344 241.406 199.719 235.5C206.188 229.5 209.891 220.266 210.828 207.797H253.016Z" fill="#E5E5E5"/>
</g>
<defs>
<clipPath id="clip0">
<rect width="335.881" height="355.809" fill="white"/>
</clipPath>
</defs>
</svg>
