<svg width="336" height="356" viewBox="0 0 336 356" fill="none" xmlns="http://www.w3.org/2000/svg">
<g clip-path="url(#clip0)">
<path d="M167.404 0L1.52588e-05 58.9125L26.4525 278.241L167.581 355.809L309.438 277.19L335.881 57.87L167.404 0Z" fill="white"/>
<path d="M319.185 70.545L167.013 18.6537V337.276L294.54 266.699L319.185 70.545Z" fill="#AF2B2D"/>
<path d="M18.785 71.4825L41.4525 267.635L167.011 337.276V18.6475L18.785 71.4825Z" fill="#DF2E31"/>
<path d="M171.316 198.637C170.21 213.936 164.546 225.98 154.324 234.77C144.168 243.559 130.757 247.953 114.09 247.953C95.8607 247.953 81.5052 241.833 71.0234 229.594C60.6068 217.289 55.3984 200.427 55.3984 179.008V170.316C55.3984 156.645 57.8073 144.6 62.625 134.184C67.4427 123.767 74.3112 115.792 83.2305 110.258C92.2148 104.659 102.632 101.859 114.48 101.859C130.887 101.859 144.103 106.254 154.129 115.043C164.155 123.832 169.949 136.169 171.512 152.055H142.215C141.499 142.875 138.927 136.234 134.5 132.133C130.138 127.966 123.465 125.883 114.48 125.883C104.715 125.883 97.3906 129.398 92.5078 136.43C87.6901 143.396 85.2161 154.236 85.0859 168.949V179.691C85.0859 195.056 87.3971 206.286 92.0195 213.383C96.707 220.479 104.064 224.027 114.09 224.027C123.139 224.027 129.878 221.977 134.305 217.875C138.797 213.708 141.368 207.296 142.02 198.637H171.316ZM276.102 187.895H219.852V246H190.555V103.812H283.133V127.543H219.852V164.262H276.102V187.895Z" fill="#F8F8F8"/>
</g>
<defs>
<clipPath id="clip0">
<rect width="335.881" height="355.809" fill="white"/>
</clipPath>
</defs>
</svg>
