<svg width="336" height="356" viewBox="0 0 336 356" fill="none" xmlns="http://www.w3.org/2000/svg">
<g clip-path="url(#clip0)">
<path d="M167.404 0L1.52588e-05 58.9125L26.4525 278.241L167.581 355.809L309.438 277.19L335.881 57.87L167.404 0Z" fill="#B3B3B3"/>
<path d="M319.185 70.545L167.013 18.6537V337.276L294.54 266.699L319.185 70.545Z" fill="#AF2B2D"/>
<path d="M18.785 71.4825L41.4525 267.635L167.011 337.276V18.6475L18.785 71.4825Z" fill="#DF2E31"/>
<path d="M163.418 246H134.121V185.062H76.9922V246H47.6953V103.812H76.9922V161.43H134.121V103.812H163.418V246ZM262.832 208.695C262.832 203.161 260.879 198.93 256.973 196C253.066 193.005 246.035 189.88 235.879 186.625C225.723 183.305 217.682 180.049 211.758 176.859C195.612 168.135 187.539 156.384 187.539 141.605C187.539 133.923 189.688 127.087 193.984 121.098C198.346 115.043 204.564 110.323 212.637 106.938C220.775 103.552 229.889 101.859 239.98 101.859C250.137 101.859 259.186 103.715 267.129 107.426C275.072 111.072 281.224 116.247 285.586 122.953C290.013 129.659 292.227 137.276 292.227 145.805H262.93C262.93 139.294 260.879 134.249 256.777 130.668C252.676 127.022 246.914 125.199 239.492 125.199C232.331 125.199 226.764 126.729 222.793 129.789C218.822 132.784 216.836 136.755 216.836 141.703C216.836 146.326 219.147 150.199 223.77 153.324C228.457 156.449 235.326 159.379 244.375 162.113C261.042 167.126 273.184 173.344 280.801 180.766C288.418 188.188 292.227 197.432 292.227 208.5C292.227 220.805 287.572 230.473 278.262 237.504C268.952 244.47 256.419 247.953 240.664 247.953C229.727 247.953 219.766 245.967 210.781 241.996C201.797 237.96 194.928 232.458 190.176 225.492C185.488 218.526 183.145 210.453 183.145 201.273H212.539C212.539 216.964 221.914 224.809 240.664 224.809C247.63 224.809 253.066 223.409 256.973 220.609C260.879 217.745 262.832 213.773 262.832 208.695Z" fill="#E5E5E5"/>
</g>
<defs>
<clipPath id="clip0">
<rect width="335.881" height="355.809" fill="white"/>
</clipPath>
</defs>
</svg>
