<svg width="336" height="356" viewBox="0 0 336 356" fill="none" xmlns="http://www.w3.org/2000/svg">
<g clip-path="url(#clip0)">
<path d="M167.404 0L1.52588e-05 58.9125L26.4525 278.241L167.581 355.809L309.438 277.19L335.881 57.87L167.404 0Z" fill="white"/>
<path d="M319.185 70.545L167.013 18.6537V337.276L294.54 266.699L319.185 70.545Z" fill="#AF2B2D"/>
<path d="M18.785 71.4825L41.4525 267.635L167.011 337.276V18.6475L18.785 71.4825Z" fill="#DF2E31"/>
<path d="M159.418 246H130.121V185.062H72.9922V246H43.6953V103.812H72.9922V161.43H130.121V103.812H159.418V246ZM292.719 103.812V197.465C292.719 213.025 287.836 225.329 278.07 234.379C268.37 243.428 255.089 247.953 238.227 247.953C221.625 247.953 208.441 243.559 198.676 234.77C188.91 225.98 183.93 213.904 183.734 198.539V103.812H213.031V197.66C213.031 206.97 215.245 213.773 219.672 218.07C224.164 222.302 230.349 224.418 238.227 224.418C254.698 224.418 263.064 215.759 263.324 198.441V103.812H292.719Z" fill="#F8F8F8"/>
</g>
<defs>
<clipPath id="clip0">
<rect width="335.881" height="355.809" fill="white"/>
</clipPath>
</defs>
</svg>
