<svg width="336" height="356" viewBox="0 0 336 356" fill="none" xmlns="http://www.w3.org/2000/svg">
<g clip-path="url(#clip0)">
<path d="M167.404 0L1.52588e-05 58.9125L26.4525 278.241L167.581 355.809L309.438 277.19L335.881 57.87L167.404 0Z" fill="white"/>
<path d="M319.185 70.545L167.013 18.6537V337.276L294.54 266.699L319.185 70.545Z" fill="#AF2B2D"/>
<path d="M18.785 71.4825L41.4525 267.635L167.011 337.276V18.6475L18.785 71.4825Z" fill="#DF2E31"/>
<path d="M164.418 246H135.121V185.062H77.9922V246H48.6953V103.812H77.9922V161.43H135.121V103.812H164.418V246ZM263.832 208.695C263.832 203.161 261.879 198.93 257.973 196C254.066 193.005 247.035 189.88 236.879 186.625C226.723 183.305 218.682 180.049 212.758 176.859C196.612 168.135 188.539 156.384 188.539 141.605C188.539 133.923 190.688 127.087 194.984 121.098C199.346 115.043 205.564 110.323 213.637 106.938C221.775 103.552 230.889 101.859 240.98 101.859C251.137 101.859 260.186 103.715 268.129 107.426C276.072 111.072 282.224 116.247 286.586 122.953C291.013 129.659 293.227 137.276 293.227 145.805H263.93C263.93 139.294 261.879 134.249 257.777 130.668C253.676 127.022 247.914 125.199 240.492 125.199C233.331 125.199 227.764 126.729 223.793 129.789C219.822 132.784 217.836 136.755 217.836 141.703C217.836 146.326 220.147 150.199 224.77 153.324C229.457 156.449 236.326 159.379 245.375 162.113C262.042 167.126 274.184 173.344 281.801 180.766C289.418 188.188 293.227 197.432 293.227 208.5C293.227 220.805 288.572 230.473 279.262 237.504C269.952 244.47 257.419 247.953 241.664 247.953C230.727 247.953 220.766 245.967 211.781 241.996C202.797 237.96 195.928 232.458 191.176 225.492C186.488 218.526 184.145 210.453 184.145 201.273H213.539C213.539 216.964 222.914 224.809 241.664 224.809C248.63 224.809 254.066 223.409 257.973 220.609C261.879 217.745 263.832 213.773 263.832 208.695Z" fill="#F8F8F8"/>
</g>
<defs>
<clipPath id="clip0">
<rect width="335.881" height="355.809" fill="white"/>
</clipPath>
</defs>
</svg>
