<svg width="336" height="356" viewBox="0 0 336 356" fill="none" xmlns="http://www.w3.org/2000/svg">
<g clip-path="url(#clip0)">
<path d="M167.404 0L1.52588e-05 58.9125L26.4525 278.241L167.581 355.809L309.438 277.19L335.881 57.87L167.404 0Z" fill="#B3B3B3"/>
<path d="M319.185 70.545L167.013 18.6537V337.276L294.54 266.699L319.185 70.545Z" fill="#AF2B2D"/>
<path d="M18.785 71.4825L41.4525 267.635L167.011 337.276V18.6475L18.785 71.4825Z" fill="#DF2E31"/>
<path d="M163.418 246H134.121V185.062H76.9922V246H47.6953V103.812H76.9922V161.43H134.121V103.812H163.418V246ZM296.719 103.812V197.465C296.719 213.025 291.836 225.329 282.07 234.379C272.37 243.428 259.089 247.953 242.227 247.953C225.625 247.953 212.441 243.559 202.676 234.77C192.91 225.98 187.93 213.904 187.734 198.539V103.812H217.031V197.66C217.031 206.97 219.245 213.773 223.672 218.07C228.164 222.302 234.349 224.418 242.227 224.418C258.698 224.418 267.064 215.759 267.324 198.441V103.812H296.719Z" fill="#E5E5E5"/>
</g>
<defs>
<clipPath id="clip0">
<rect width="335.881" height="355.809" fill="white"/>
</clipPath>
</defs>
</svg>
