<svg width="336" height="356" viewBox="0 0 336 356" fill="none" xmlns="http://www.w3.org/2000/svg">
<g clip-path="url(#clip0)">
<path d="M167.404 0L1.52588e-05 58.9125L26.4525 278.241L167.581 355.809L309.438 277.19L335.881 57.87L167.404 0Z" fill="white"/>
<path d="M319.185 70.545L167.013 18.6537V337.276L294.54 266.699L319.185 70.545Z" fill="#AF2B2D"/>
<path d="M18.785 71.4825L41.4525 267.635L167.011 337.276V18.6475L18.785 71.4825Z" fill="#DF2E31"/>
<path d="M103.519 101.922H131.351V195.438C131.351 204.035 129.433 211.642 125.599 218.26C121.826 224.816 116.476 229.887 109.549 233.475C102.622 237.062 94.7979 238.855 86.0771 238.855C71.79 238.855 60.6572 235.237 52.6787 228.001C44.7002 220.703 40.7109 210.405 40.7109 197.107H68.7285C68.7285 203.725 70.1201 208.611 72.9033 211.766C75.6865 214.92 80.0778 216.497 86.0771 216.497C91.3962 216.497 95.6328 214.673 98.7871 211.023C101.941 207.374 103.519 202.179 103.519 195.438V101.922ZM260.398 198.035L278.582 101.922H306.321L276.355 237H248.338L226.351 146.639L204.363 237H176.346L146.38 101.922H174.119L192.396 197.85L214.661 101.922H238.226L260.398 198.035Z" fill="#F8F8F8"/>
</g>
<defs>
<clipPath id="clip0">
<rect width="335.881" height="355.809" fill="white"/>
</clipPath>
</defs>
</svg>
