<svg width="336" height="356" viewBox="0 0 336 356" fill="none" xmlns="http://www.w3.org/2000/svg">
<g clip-path="url(#clip0)">
<path d="M167.404 0L1.52588e-05 58.9125L26.4525 278.241L167.581 355.809L309.438 277.19L335.881 57.87L167.404 0Z" fill="#B3B3B3"/>
<path d="M319.185 70.545L167.013 18.6537V337.276L294.54 266.699L319.185 70.545Z" fill="#AF2B2D"/>
<path d="M18.785 71.4825L41.4525 267.635L167.011 337.276V18.6475L18.785 71.4825Z" fill="#DF2E31"/>
<path d="M187.828 71.25H230.016V213C230.016 226.031 227.109 237.562 221.297 247.594C215.578 257.531 207.469 265.219 196.969 270.656C186.469 276.094 174.609 278.812 161.391 278.812C139.734 278.812 122.859 273.328 110.766 262.359C98.6719 251.297 92.625 235.688 92.625 215.531H135.094C135.094 225.562 137.203 232.969 141.422 237.75C145.641 242.531 152.297 244.922 161.391 244.922C169.453 244.922 175.875 242.156 180.656 236.625C185.438 231.094 187.828 223.219 187.828 213V71.25Z" fill="#E5E5E5"/>
</g>
<defs>
<clipPath id="clip0">
<rect width="335.881" height="355.809" fill="white"/>
</clipPath>
</defs>
</svg>
