<svg width="336" height="356" viewBox="0 0 336 356" fill="none" xmlns="http://www.w3.org/2000/svg">
<g clip-path="url(#clip0)">
<path d="M167.404 0L1.52588e-05 58.9125L26.4525 278.241L167.581 355.809L309.438 277.19L335.881 57.87L167.404 0Z" fill="#B3B3B3"/>
<path d="M319.185 70.545L167.013 18.6537V337.276L294.54 266.699L319.185 70.545Z" fill="#AF2B2D"/>
<path d="M18.785 71.4825L41.4525 267.635L167.011 337.276V18.6475L18.785 71.4825V71.4825Z" fill="#DF2E31"/>
<path d="M202.285 177.131L167.29 104.051L136.482 177.131H202.285V177.131ZM215.628 207.86H122.864L102.111 259.767L63.5088 260.481L167.014 30.2238L274.126 260.481H238.348L215.628 207.86V207.86Z" fill="#F2F2F2"/>
<path d="M167.013 30.2238L167.289 104.051L202.248 177.188H167.091L167.013 207.812L215.625 207.86L238.346 260.49L275.283 261.175L167.013 30.2238Z" fill="#B3B3B3"/>
</g>
<defs>
<clipPath id="clip0">
<rect width="335.881" height="355.809" fill="white"/>
</clipPath>
</defs>
</svg>
