<svg width="336" height="356" viewBox="0 0 336 356" fill="none" xmlns="http://www.w3.org/2000/svg">
<g clip-path="url(#clip0)">
<path d="M167.404 0L1.52588e-05 58.9125L26.4525 278.241L167.581 355.809L309.438 277.19L335.881 57.87L167.404 0Z" fill="white"/>
<path d="M319.185 70.545L167.013 18.6537V337.276L294.54 266.699L319.185 70.545Z" fill="#AF2B2D"/>
<path d="M18.785 71.4825L41.4525 267.635L167.011 337.276V18.6475L18.785 71.4825Z" fill="#DF2E31"/>
<path d="M108.332 193.949H84.9922V246H55.6953V103.812H108.527C125.324 103.812 138.28 107.556 147.395 115.043C156.509 122.53 161.066 133.109 161.066 146.781C161.066 156.482 158.951 164.587 154.719 171.098C150.552 177.543 144.204 182.686 135.676 186.527L166.438 244.633V246H134.992L108.332 193.949ZM84.9922 170.219H108.625C115.982 170.219 121.678 168.363 125.715 164.652C129.751 160.876 131.77 155.701 131.77 149.125C131.77 142.419 129.849 137.146 126.008 133.305C122.232 129.464 116.405 127.543 108.527 127.543H84.9922V170.219ZM257.16 208.695C257.16 203.161 255.207 198.93 251.301 196C247.395 193.005 240.363 189.88 230.207 186.625C220.051 183.305 212.01 180.049 206.086 176.859C189.94 168.135 181.867 156.384 181.867 141.605C181.867 133.923 184.016 127.087 188.312 121.098C192.674 115.043 198.892 110.323 206.965 106.938C215.103 103.552 224.217 101.859 234.309 101.859C244.465 101.859 253.514 103.715 261.457 107.426C269.4 111.072 275.552 116.247 279.914 122.953C284.341 129.659 286.555 137.276 286.555 145.805H257.258C257.258 139.294 255.207 134.249 251.105 130.668C247.004 127.022 241.242 125.199 233.82 125.199C226.659 125.199 221.092 126.729 217.121 129.789C213.15 132.784 211.164 136.755 211.164 141.703C211.164 146.326 213.475 150.199 218.098 153.324C222.785 156.449 229.654 159.379 238.703 162.113C255.37 167.126 267.512 173.344 275.129 180.766C282.746 188.188 286.555 197.432 286.555 208.5C286.555 220.805 281.9 230.473 272.59 237.504C263.28 244.47 250.747 247.953 234.992 247.953C224.055 247.953 214.094 245.967 205.109 241.996C196.125 237.96 189.257 232.458 184.504 225.492C179.816 218.526 177.473 210.453 177.473 201.273H206.867C206.867 216.964 216.242 224.809 234.992 224.809C241.958 224.809 247.395 223.409 251.301 220.609C255.207 217.745 257.16 213.773 257.16 208.695Z" fill="#F8F8F8"/>
</g>
<defs>
<clipPath id="clip0">
<rect width="335.881" height="355.809" fill="white"/>
</clipPath>
</defs>
</svg>
