<svg width="336" height="356" viewBox="0 0 336 356" fill="none" xmlns="http://www.w3.org/2000/svg">
<g clip-path="url(#clip0)">
<path d="M167.404 0L1.52588e-05 58.9125L26.4525 278.241L167.581 355.809L309.438 277.19L335.881 57.87L167.404 0Z" fill="#B3B3B3"/>
<path d="M319.185 70.545L167.013 18.6537V337.276L294.54 266.699L319.185 70.545Z" fill="#AF2B2D"/>
<path d="M18.785 71.4825L41.4525 267.635L167.011 337.276V18.6475L18.785 71.4825Z" fill="#DF2E31"/>
<path d="M169.078 201.047H135.469V276H93.2812V71.25H169.359C193.547 71.25 212.203 76.6406 225.328 87.4219C238.453 98.2031 245.016 113.438 245.016 133.125C245.016 147.094 241.969 158.766 235.875 168.141C229.875 177.422 220.734 184.828 208.453 190.359L252.75 274.031V276H207.469L169.078 201.047ZM135.469 166.875H169.5C180.094 166.875 188.297 164.203 194.109 158.859C199.922 153.422 202.828 145.969 202.828 136.5C202.828 126.844 200.062 119.25 194.531 113.719C189.094 108.188 180.703 105.422 169.359 105.422H135.469V166.875Z" fill="#E5E5E5"/>
</g>
<defs>
<clipPath id="clip0">
<rect width="335.881" height="355.809" fill="white"/>
</clipPath>
</defs>
</svg>
