<svg width="336" height="356" viewBox="0 0 336 356" fill="none" xmlns="http://www.w3.org/2000/svg">
<g clip-path="url(#clip0)">
<path d="M167.404 0L1.52588e-05 58.9125L26.4525 278.241L167.581 355.809L309.438 277.19L335.881 57.87L167.404 0Z" fill="#B3B3B3"/>
<path d="M319.185 70.545L167.013 18.6537V337.276L294.54 266.699L319.185 70.545Z" fill="#AF2B2D"/>
<path d="M18.785 71.4825L41.4525 267.635L167.011 337.276V18.6475L18.785 71.4825Z" fill="#DF2E31"/>
<path d="M203.453 222.281C203.453 214.312 200.641 208.219 195.016 204C189.391 199.688 179.266 195.188 164.641 190.5C150.016 185.719 138.438 181.031 129.906 176.438C106.656 163.875 95.0312 146.953 95.0312 125.672C95.0312 114.609 98.125 104.766 104.312 96.1406C110.594 87.4219 119.547 80.625 131.172 75.75C142.891 70.875 156.016 68.4375 170.547 68.4375C185.172 68.4375 198.203 71.1094 209.641 76.4531C221.078 81.7031 229.938 89.1562 236.219 98.8125C242.594 108.469 245.781 119.438 245.781 131.719H203.594C203.594 122.344 200.641 115.078 194.734 109.922C188.828 104.672 180.531 102.047 169.844 102.047C159.531 102.047 151.516 104.25 145.797 108.656C140.078 112.969 137.219 118.687 137.219 125.812C137.219 132.469 140.547 138.047 147.203 142.547C153.953 147.047 163.844 151.266 176.875 155.203C200.875 162.422 218.359 171.375 229.328 182.062C240.297 192.75 245.781 206.062 245.781 222C245.781 239.719 239.078 253.641 225.672 263.766C212.266 273.797 194.219 278.812 171.531 278.812C155.781 278.812 141.438 275.953 128.5 270.234C115.562 264.422 105.672 256.5 98.8281 246.469C92.0781 236.438 88.7031 224.812 88.7031 211.594H131.031C131.031 234.188 144.531 245.484 171.531 245.484C181.562 245.484 189.391 243.469 195.016 239.438C200.641 235.312 203.453 229.594 203.453 222.281Z" fill="#E5E5E5"/>
</g>
<defs>
<clipPath id="clip0">
<rect width="335.881" height="355.809" fill="white"/>
</clipPath>
</defs>
</svg>
