<svg width="336" height="356" viewBox="0 0 336 356" fill="none" xmlns="http://www.w3.org/2000/svg">
<g clip-path="url(#clip0)">
<path d="M167.404 0L1.52588e-05 58.9125L26.4525 278.241L167.581 355.809L309.438 277.19L335.881 57.87L167.404 0Z" fill="white"/>
<path d="M319.185 70.545L167.013 18.6537V337.276L294.54 266.699L319.185 70.545Z" fill="#AF2B2D"/>
<path d="M18.785 71.4825L41.4525 267.635L167.011 337.276V18.6475L18.785 71.4825Z" fill="#DF2E31"/>
<path d="M133.426 208.695C133.426 203.161 131.473 198.93 127.566 196C123.66 193.005 116.629 189.88 106.473 186.625C96.3164 183.305 88.276 180.049 82.3516 176.859C66.2057 168.135 58.1328 156.384 58.1328 141.605C58.1328 133.923 60.2812 127.087 64.5781 121.098C68.9401 115.043 75.1576 110.323 83.2305 106.938C91.3685 103.552 100.483 101.859 110.574 101.859C120.73 101.859 129.78 103.715 137.723 107.426C145.665 111.072 151.818 116.247 156.18 122.953C160.607 129.659 162.82 137.276 162.82 145.805H133.523C133.523 139.294 131.473 134.249 127.371 130.668C123.27 127.022 117.508 125.199 110.086 125.199C102.924 125.199 97.3581 126.729 93.3867 129.789C89.4154 132.784 87.4297 136.755 87.4297 141.703C87.4297 146.326 89.7409 150.199 94.3633 153.324C99.0508 156.449 105.919 159.379 114.969 162.113C131.635 167.126 143.777 173.344 151.395 180.766C159.012 188.188 162.82 197.432 162.82 208.5C162.82 220.805 158.165 230.473 148.855 237.504C139.546 244.47 127.013 247.953 111.258 247.953C100.32 247.953 90.3594 245.967 81.375 241.996C72.3906 237.96 65.5221 232.458 60.7695 225.492C56.082 218.526 53.7383 210.453 53.7383 201.273H83.1328C83.1328 216.964 92.5078 224.809 111.258 224.809C118.224 224.809 123.66 223.409 127.566 220.609C131.473 217.745 133.426 213.773 133.426 208.695ZM212.039 195.902V246H182.742V103.812H238.211C248.888 103.812 258.263 105.766 266.336 109.672C274.474 113.578 280.724 119.145 285.086 126.371C289.448 133.533 291.629 141.703 291.629 150.883C291.629 164.815 286.844 175.818 277.273 183.891C267.768 191.898 254.585 195.902 237.723 195.902H212.039ZM212.039 172.172H238.211C245.958 172.172 251.85 170.349 255.887 166.703C259.988 163.057 262.039 157.849 262.039 151.078C262.039 144.112 259.988 138.48 255.887 134.184C251.785 129.887 246.121 127.673 238.895 127.543H212.039V172.172Z" fill="#F8F8F8"/>
</g>
<defs>
<clipPath id="clip0">
<rect width="335.881" height="355.809" fill="white"/>
</clipPath>
</defs>
</svg>
